:FULLY-SPECIFIED
:FORCE-ALL-JOINTS-BE-3DOF
:DEGREES
1223
root -0.842055 14.8461 -16.6087 369.4 17.2085 360.559
lfemur -0.976624 -1.00177 -8.68201
ltibia 61.2131 0 0
lfoot 2.14363 3.03907 0
ltoes -28.9862 0 0
rfemur -52.3162 -9.70423 22.4387
rtibia 73.2011 0 0
rfoot -19.8943 -19.2497 0
rtoes -5.96384 0 0
lowerback 12.6757 1.58853 -2.93627
upperback -3.32937 1.59056 -0.0253176
thorax -10.8578 0.94067 1.27512
lowerneck -1.16415 -8.62669 -9.88663
upperneck 0.907506 -11.5891 10.3216
head 1.68382 -5.74937 4.32167
lclavicle -1.86063e-14 -1.78164e-14 0
lhumerus -56.5922 -32.7625 116.847
lradius 87.6384 0 0
lwrist 14.6938 0 0
lhand -27.2301 27.6154 0
lfingers 7.12502 0 0
lthumb -0.643672 57.4936 0
rclavicle -1.86063e-14 -1.78164e-14 0
rhumerus 64.7701 4.36572 -26.7323
rradius 93.6075 0 0
rwrist -11.9603 0 0
rhand -29.6171 -34.2199 0
rfingers 7.12502 0 0
rthumb -2.94689 -64.1457 0
1224
root -0.856038 14.8573 -16.487 369.602 16.7561 360.4
lfemur -1.3274 -1.14639 -8.70323
ltibia 61.9347 0 0
lfoot 2.82316 2.15333 0
ltoes -29.0494 0 0
rfemur -52.2562 -9.37955 22.8709
rtibia 73.3349 0 0
rfoot -20.1485 -19.8858 0
rtoes -5.85459 0 0
lowerback 12.582 1.53962 -2.72383
upperback -3.38857 1.57044 0.00381663
thorax -10.8596 0.920092 1.19331
lowerneck -1.20853 -8.5016 -9.78368
upperneck 0.835679 -11.4097 10.2571
head 1.63803 -5.65938 4.29978
lclavicle -1.96939e-14 -1.78925e-14 0
lhumerus -56.1192 -33.2424 117.262
lradius 87.0941 0 0
lwrist 13.0484 0 0
lhand -27.6445 27.2417 0
lfingers 7.12502 0 0
lthumb -1.04367 57.1282 0
rclavicle -1.96939e-14 -1.78925e-14 0
rhumerus 64.839 4.77393 -26.6602
rradius 93.6985 0 0
rwrist -12.6084 0 0
rhand -29.3783 -34.2958 0
rfingers 7.12502 0 0
rthumb -2.71631 -64.2279 0
1225
root -0.870021 14.8684 -16.3652 369.805 16.3036 360.24
lfemur -1.67818 -1.29101 -8.72445
ltibia 62.6563 0 0
lfoot 3.50269 1.26759 0
ltoes -29.1126 0 0
rfemur -52.1962 -9.05486 23.3032
rtibia 73.4686 0 0
rfoot -20.4026 -20.5219 0
rtoes -5.74535 0 0
lowerback 12.4884 1.49071 -2.51139
upperback -3.44776 1.55031 0.0329508
thorax -10.8615 0.899514 1.11149
lowerneck -1.25291 -8.37651 -9.68073
upperneck 0.763853 -11.2302 10.1926
head 1.59224 -5.56938 4.2779
lclavicle -2.07814e-14 -1.79685e-14 0
lhumerus -55.6462 -33.7223 117.678
lradius 86.5497 0 0
lwrist 11.403 0 0
lhand -28.0588 26.868 0
lfingers 7.12502 0 0
lthumb -1.44368 56.7629 0
rclavicle -2.07814e-14 -1.79685e-14 0
rhumerus 64.9079 5.18214 -26.5882
rradius 93.7894 0 0
rwrist -13.2564 0 0
rhand -29.1394 -34.3716 0
rfingers 7.12502 0 0
rthumb -2.48574 -64.3101 0
1226
root -0.884004 14.8796 -16.2435 370.007 15.8511 360.081
lfemur -2.02896 -1.43564 -8.74566
ltibia 63.3778 0 0
lfoot 4.18222 0.381851 0
ltoes -29.1758 0 0
rfemur -52.1362 -8.73017 23.7355
rtibia 73.6024 0 0
rfoot -20.6567 -21.1579 0
rtoes -5.6361 0 0
lowerback 12.3947 1.44179 -2.29895
upperback -3.50696 1.53019 0.062085
thorax -10.8633 0.878936 1.02967
lowerneck -1.2973 -8.25142 -9.57778
upperneck 0.692027 -11.0508 10.1282
head 1.54644 -5.47939 4.25601
lclavicle -2.18689e-14 -1.80446e-14 0
lhumerus -55.1732 -34.2022 118.094
lradius 86.0054 0 0
lwrist 9.75763 0 0
lhand -28.4732 26.4943 0
lfingers 7.12502 0 0
lthumb -1.84368 56.3975 0
rclavicle -2.18689e-14 -1.80446e-14 0
rhumerus 64.9768 5.59036 -26.5161
rradius 93.8804 0 0
rwrist -13.9044 0 0
rhand -28.9006 -34.4474 0
rfingers 7.12502 0 0
rthumb -2.25517 -64.3924 0
1227
root -0.897987 14.8907 -16.1218 370.21 15.3987 359.921
lfemur -2.37974 -1.58026 -8.76688
ltibia 64.0994 0 0
lfoot 4.86175 -0.503889 0
ltoes -29.239 0 0
rfemur -52.0762 -8.40549 24.1677
rtibia 73.7362 0 0
rfoot -20.9109 -21.794 0
rtoes -5.52686 0 0
lowerback 12.301 1.39288 -2.08651
upperback -3.56615 1.51007 0.0912192
thorax -10.8651 0.858358 0.94785
lowerneck -1.34168 -8.12633 -9.47483
upperneck 0.620201 -10.8714 10.0637
head 1.50065 -5.38939 4.23412
lclavicle -2.29564e-14 -1.81207e-14 0
lhumerus -54.7002 -34.6821 118.509
lradius 85.461 0 0
lwrist 8.11224 0 0
lhand -28.8875 26.1205 0
lfingers 7.12502 0 0
lthumb -2.24368 56.0322 0
rclavicle -2.29564e-14 -1.81207e-14 0
rhumerus 65.0457 5.99857 -26.444
rradius 93.9713 0 0
rwrist -14.5524 0 0
rhand -28.6618 -34.5232 0
rfingers 7.12502 0 0
rthumb -2.02459 -64.4746 0
1228
root -0.91197 14.9019 -16.0001 370.412 14.9462 359.762
lfemur -2.73052 -1.72488 -8.7881
ltibia 64.821 0 0
lfoot 5.54128 -1.38963 0
ltoes -29.3022 0 0
rfemur -52.0162 -8.0808 24.6
rtibia 73.8699 0 0
rfoot -21.165 -22.4301 0
rtoes -5.41761 0 0
lowerback 12.2073 1.34397 -1.87407
upperback -3.62535 1.48995 0.120353
thorax -10.8669 0.83778 0.866032
lowerneck -1.38607 -8.00124 -9.37188
upperneck 0.548375 -10.6919 9.99924
head 1.45486 -5.2994 4.21223
lclavicle -2.40439e-14 -1.81967e-14 0
lhumerus -54.2272 -35.162 118.925
lradius 84.9167 0 0
lwrist 6.46684 0 0
lhand -29.3019 25.7468 0
lfingers 7.12502 0 0
lthumb -2.64368 55.6668 0
rclavicle -2.40439e-14 -1.81967e-14 0
rhumerus 65.1147 6.40678 -26.3719
rradius 94.0623 0 0
rwrist -15.2004 0 0
rhand -28.4229 -34.599 0
rfingers 7.12502 0 0
rthumb -1.79402 -64.5568 0
1229
root -0.925953 14.913 -15.8784 370.615 14.4937 359.602
lfemur -3.0813 -1.8695 -8.80932
ltibia 65.5426 0 0
lfoot 6.2208 -2.27537 0
ltoes -29.3654 0 0
rfemur -51.9562 -7.75611 25.0323
rtibia 74.0037 0 0
rfoot -21.4191 -23.0662 0
rtoes -5.30837 0 0
lowerback 12.1136 1.29506 -1.66162
upperback -3.68454 1.46983 0.149488
thorax -10.8687 0.817201 0.784214
lowerneck -1.43045 -7.87616 -9.26893
upperneck 0.476548 -10.5125 9.93478
head 1.40907 -5.20941 4.19035
lclavicle -2.51315e-14 -1.82728e-14 0
lhumerus -53.7542 -35.6419 119.341
lradius 84.3723 0 0
lwrist 4.82144 0 0
lhand -29.7162 25.3731 0
lfingers 7.12502 0 0
lthumb -3.04369 55.3014 0
rclavicle -2.51315e-14 -1.82728e-14 0
rhumerus 65.1836 6.81499 -26.2999
rradius 94.1532 0 0
rwrist -15.8485 0 0
rhand -28.1841 -34.6749 0
rfingers 7.12502 0 0
rthumb -1.56345 -64.639 0
